<?xml version="1.0" encoding="UTF-8"?>
<svg xmlns="http://www.w3.org/2000/svg" width="30" height="30" viewBox="0 0 30 30"><defs><style>.a{fill:rgba(245,141,141,0);}.b{fill:#fff;}</style></defs><g transform="translate(-1170 -1196)"><rect class="a" width="30" height="30" transform="translate(1170 1196)"/><path class="b" d="M26.667,0H3.333A3.343,3.343,0,0,0,0,3.333V26.667A3.342,3.342,0,0,0,3.333,30H15V18.333H11.667V14.208H15V10.792c0-3.607,2.019-6.14,6.276-6.14l3.006,0V9h-2A2.2,2.2,0,0,0,20,11.393V14.21h4.281l-.947,4.124H20V30h6.667A3.342,3.342,0,0,0,30,26.667V3.333A3.343,3.343,0,0,0,26.667,0" transform="translate(1170 1196)"/></g></svg>