<?xml version="1.0" encoding="UTF-8"?>
<svg xmlns="http://www.w3.org/2000/svg" width="30" height="30" viewBox="0 0 30 30"><defs><style>.a{fill:rgba(245,141,141,0);}.b{fill:#fff;}.c{fill:none;stroke:#707070;stroke-linecap:round;stroke-linejoin:round;stroke-width:1.5px;}</style></defs><g transform="translate(-11.061 -13.8)"><rect class="a" width="30" height="30" transform="translate(11.061 13.8)"/><path class="b" d="M63.953,76.879H47.221l-.821-.821V61.021l.821-.821H63.953l.821.821V76.059ZM48.041,75.212H63.132V61.841H48.041Z" transform="translate(-33.953 -38.562)"/><path class="b" d="M75.48,87.045H71.721a.818.818,0,0,1-.768-1.085L71.588,84a2.685,2.685,0,0,1-.688-1.8,2.7,2.7,0,0,1,5.4,0,2.636,2.636,0,0,1-.688,1.8l.635,1.959a.825.825,0,0,1-.106.741A.732.732,0,0,1,75.48,87.045ZM72.859,85.4h1.483l-.45-1.4a.829.829,0,0,1,.318-.927,1.059,1.059,0,1,0-1.218,0,.843.843,0,0,1,.318.927Z" transform="translate(-51.966 -52.753)"/><path class="b" d="M73.007,41.428a.825.825,0,0,1-.821-.821V37.642a2.556,2.556,0,0,0-2.515-2.7,2.185,2.185,0,0,0-1.641.582,3.16,3.16,0,0,0-.688,2.065v2.992a.821.821,0,1,1-1.641,0V37.668a4.83,4.83,0,0,1,1.138-3.256A3.729,3.729,0,0,1,69.671,33.3a3.822,3.822,0,0,1,3.654,2.224,5.621,5.621,0,0,1,.5,2.118v2.965A.792.792,0,0,1,73.007,41.428Z" transform="translate(-48.143 -18.784)"/><path class="b" d="M118.138,114.575l-3.071-4.21a.834.834,0,1,1,1.35-.98l2.25,3.071,3.521-7.572a.817.817,0,0,1,1.483.688l-4.13,8.843Z" transform="translate(-84.325 -71.068)"/><path class="c" d="M39.632,32.943" transform="translate(0 -1)"/></g></svg>