<svg xmlns="http://www.w3.org/2000/svg" width="109.962" height="90.513" viewBox="0 0 109.962 90.513">
  <g id="Icon-Rolli-flexy" transform="translate(0.5 0.445)">
    <path id="Stroke_1" data-name="Stroke 1" d="M1.349,1.716c0,.948-.3,1.717-.674,1.717S0,2.664,0,1.716.3,0,.674,0,1.349.768,1.349,1.716Z" transform="translate(73.622 1.792)" fill="none" stroke="#000" stroke-linecap="round" stroke-linejoin="round" stroke-miterlimit="10" stroke-width="1"/>
    <path id="Stroke_3" data-name="Stroke 3" d="M1.349,1.716c0,.948-.3,1.717-.674,1.717S0,2.664,0,1.716.3,0,.674,0,1.349.768,1.349,1.716Z" transform="translate(83.431 2.528)" fill="none" stroke="#000" stroke-linecap="round" stroke-linejoin="round" stroke-miterlimit="10" stroke-width="1"/>
    <path id="Stroke_5" data-name="Stroke 5" d="M8.484,1.722S.76-.116.515.006A4.972,4.972,0,0,0,.024,2.335a75.9,75.9,0,0,0,8.46,2.82" transform="translate(65.874 0.07)" fill="none" stroke="#000" stroke-linecap="round" stroke-linejoin="round" stroke-miterlimit="10" stroke-width="1"/>
    <path id="Stroke_7" data-name="Stroke 7" d="M0,0C.245.245,7.724,2.942,8.215,2.7" transform="translate(75.952 3.263)" fill="none" stroke="#000" stroke-linecap="round" stroke-linejoin="round" stroke-miterlimit="10" stroke-width="1"/>
    <path id="Stroke_9" data-name="Stroke 9" d="M8.353,1.326C7.459,1.1,1.983.166.555,0A.335.335,0,0,0,.214.218C-.014.9-.091,1.832.138,2.061" transform="translate(75.813 1.202)" fill="none" stroke="#000" stroke-linecap="round" stroke-linejoin="round" stroke-miterlimit="10" stroke-width="1"/>
    <path id="Stroke_11" data-name="Stroke 11" d="M0,0C1.027.475,2.039,1.18,2.59,1.486" transform="translate(61.346 6.681)" fill="none" stroke="#000" stroke-linecap="round" stroke-linejoin="round" stroke-miterlimit="10" stroke-width="1"/>
    <path id="Stroke_13" data-name="Stroke 13" d="M8.862,3.064A23.444,23.444,0,0,1,9.475.49c.491-.245,4.269,1.045,4.9,1.226.858.245,6.375,1.348,6.5,1.716s-2.7,1.839-4.537,1.594C14.624,4.658,4.693,2.084,3.713,1.839,2.7,1.584.157.98.034.613A.614.614,0,0,1,.157,0" transform="translate(59.121 6.083)" fill="none" stroke="#000" stroke-linecap="round" stroke-linejoin="round" stroke-miterlimit="10" stroke-width="1"/>
    <path id="Stroke_15" data-name="Stroke 15" d="M0,6.7s.017-.235.061-.606A9.558,9.558,0,0,1,1.226,1.915C2.452.2,3.739-.4,6.774.267,6.59,1.724,6.5,2.405,6.5,2.405" transform="translate(59.4 0)" fill="none" stroke="#000" stroke-linecap="round" stroke-linejoin="round" stroke-miterlimit="10" stroke-width="1"/>
    <path id="Stroke_17" data-name="Stroke 17" d="M4.659.371S2.7-.609,1.348.617C.384,1.493.122,3.8,0,5.275" transform="translate(61.24 2.034)" fill="none" stroke="#000" stroke-linecap="round" stroke-linejoin="round" stroke-miterlimit="10" stroke-width="1"/>
    <path id="Stroke_19" data-name="Stroke 19" d="M.9,0A9.557,9.557,0,0,0,0,2.513" transform="translate(68.841 3.938)" fill="none" stroke="#000" stroke-linecap="round" stroke-linejoin="round" stroke-miterlimit="10" stroke-width="1"/>
    <path id="Stroke_21" data-name="Stroke 21" d="M3.527.365A6.436,6.436,0,0,0,0,.321" transform="translate(72.455 1.005)" fill="none" stroke="#000" stroke-linecap="round" stroke-linejoin="round" stroke-miterlimit="10" stroke-width="1"/>
    <path id="Stroke_23" data-name="Stroke 23" d="M.9,0A4.94,4.94,0,0,0,0,2.519" transform="translate(70.68 4.423)" fill="none" stroke="#000" stroke-linecap="round" stroke-linejoin="round" stroke-miterlimit="10" stroke-width="1"/>
    <path id="Stroke_25" data-name="Stroke 25" d="M.868.355A4.429,4.429,0,0,0,0,.124" transform="translate(74.961 2.785)" fill="none" stroke="#000" stroke-linecap="round" stroke-linejoin="round" stroke-miterlimit="10" stroke-width="1"/>
    <path id="Stroke_27" data-name="Stroke 27" d="M25.453.909S8.827.8,4.781.306A27.484,27.484,0,0,0,.657.007.441.441,0,0,0,.235.436C.19,2.2,0,9.589,0,10.236v4.291" transform="translate(33.163 9.332)" fill="none" stroke="#000" stroke-linecap="round" stroke-linejoin="round" stroke-miterlimit="10" stroke-width="1"/>
    <path id="Stroke_29" data-name="Stroke 29" d="M0,34.448S.245,22.679.245,21.821s.858-4.656,4.537-4.414c3.652.242,25.187,3.3,25.257,3.31C30.284,15.936,32.456,0,32.456,0" transform="translate(26.665 6.451)" fill="none" stroke="#000" stroke-linecap="round" stroke-linejoin="round" stroke-miterlimit="10" stroke-width="1"/>
    <path id="Stroke_31" data-name="Stroke 31" d="M8.46,8.643c0,4.774-1.894,8.643-4.23,8.643S0,13.416,0,8.643,1.894,0,4.23,0,8.46,3.869,8.46,8.643Z" transform="translate(22.986 65.08)" fill="none" stroke="#000" stroke-miterlimit="10" stroke-width="1"/>
    <path id="Stroke_33" data-name="Stroke 33" d="M5,5.982c0,3.3-1.12,5.982-2.5,5.982S0,9.285,0,5.982,1.12,0,2.5,0,5,2.678,5,5.982Z" transform="translate(24.634 67.786)" fill="none" stroke="#000" stroke-miterlimit="10" stroke-width="1"/>
    <path id="Fill_35" data-name="Fill 35" d="M1.3,1.551C1.3,2.408,1.007,3.1.649,3.1S0,2.408,0,1.551.291,0,.649,0,1.3.695,1.3,1.551" transform="translate(26.488 72.216)" stroke="#707070" stroke-width="1"/>
    <path id="Stroke_37" data-name="Stroke 37" d="M4.782,11.191c-.245,0-.247.031-.552.031C1.894,11.221,0,7.352,0,2.579A24.414,24.414,0,0,1,.135,0" transform="translate(32.549 69.095)" fill="none" stroke="#000" stroke-linecap="round" stroke-miterlimit="10" stroke-width="1"/>
    <path id="Stroke_39" data-name="Stroke 39" d="M2.359,5.293C1.171,4.76.236,2.662,0,0" transform="translate(33.825 72.589)" fill="none" stroke="#000" stroke-miterlimit="10" stroke-width="1"/>
    <path id="Stroke_41" data-name="Stroke 41" d="M.262,7.567.3,0" transform="translate(26.157 57.482)" fill="none" stroke="#000" stroke-linecap="round" stroke-linejoin="round" stroke-miterlimit="10" stroke-width="1"/>
    <path id="Stroke_43" data-name="Stroke 43" d="M2.991,33.279c-.618,4.144-1.192,7.951-1.418,9.449A.791.791,0,0,1,.008,42.5c.63-4.337,3.316-22.828,3.424-23.369.122-.613.368-3.923,3.433-3.923,2.576,0,23.006,4.3,29.425,5.751v.011L37.762,4.54l.123-1.349S15.325.126,12.873,0,10.3,2.823,10.3,2.946s-.368,12.5-.368,12.5" transform="translate(18.328 25.694)" fill="none" stroke="#000" stroke-linecap="round" stroke-linejoin="round" stroke-miterlimit="10" stroke-width="1"/>
    <path id="Stroke_45" data-name="Stroke 45" d="M4.782.149A2.208,2.208,0,0,0,1.717,2.234C1.548,3.646.779,8.885,0,14.125" transform="translate(21.637 42.711)" fill="none" stroke="#000" stroke-linecap="round" stroke-linejoin="round" stroke-miterlimit="10" stroke-width="1"/>
    <path id="Stroke_47" data-name="Stroke 47" d="M0,41.553a15.842,15.842,0,0,0,2.077.076C2.445,38.564,5.3,8.7,5.422,5.64S5.668,0,5.668,0" transform="translate(74.33 9.515)" fill="none" stroke="#000" stroke-linecap="round" stroke-linejoin="round" stroke-miterlimit="10" stroke-width="1"/>
    <path id="Stroke_49" data-name="Stroke 49" d="M.46,7.572h0a.737.737,0,0,1-.406-.958L2.54.46A.736.736,0,1,1,3.9,1.011L1.417,7.165A.738.738,0,0,1,.46,7.572Z" transform="translate(29.403 33.994)" fill="none" stroke="#000" stroke-linecap="round" stroke-linejoin="round" stroke-miterlimit="10" stroke-width="1"/>
    <path id="Stroke_51" data-name="Stroke 51" d="M10.6,10.078c0,5.565-2.372,10.078-5.3,10.078S0,15.643,0,10.078,2.372,0,5.3,0,10.6,4.512,10.6,10.078Z" transform="translate(48.008 50.651)" fill="none" stroke="#000" stroke-miterlimit="10" stroke-width="1"/>
    <path id="Stroke_53" data-name="Stroke 53" d="M1.78,0C2.824,1.607,3.533,2.078,3.9,4.809c.555,4.184-1.567,7.745-3.654,8.583A41.378,41.378,0,0,0,.528,8.507,37.31,37.31,0,0,0,0,.2" transform="translate(74.445 51.087)" fill="none" stroke="#000" stroke-miterlimit="10" stroke-width="1"/>
    <path id="Stroke_55" data-name="Stroke 55" d="M0,.626A2.831,2.831,0,0,1,1.962.014C3.065.136,24.84,1.6,24.84,1.6" transform="translate(33.776 8.644)" fill="none" stroke="#000" stroke-linecap="round" stroke-linejoin="round" stroke-miterlimit="10" stroke-width="1"/>
    <path id="Stroke_57" data-name="Stroke 57" d="M26.409,0C33.083,2.082,38.59,8.43,41.354,16.868a36.492,36.492,0,0,1,1,3.669,40.693,40.693,0,0,1,.931,8.708A41.378,41.378,0,0,1,43,34.131a38.858,38.858,0,0,1-1.338,6.525A33.762,33.762,0,0,1,38.292,48.4h0s0,.008,0,.008c-3.967,6.609-9.95,10.814-16.64,10.814C9.692,59.219,0,45.8,0,29.245A39.011,39.011,0,0,1,2.929,14.182" transform="translate(31.689 30.349)" fill="none" stroke="#000" stroke-linecap="round" stroke-linejoin="round" stroke-miterlimit="10" stroke-width="1"/>
    <path id="Stroke_59" data-name="Stroke 59" d="M0,46.217c6.134-2.077,11.944-8.139,14.308-16.092a36.413,36.413,0,0,0,1.475-10.37,36.987,36.987,0,0,0-.846-7.914A28.329,28.329,0,0,0,9.343,0" transform="translate(68.84 34.567)" fill="none" stroke="#000" stroke-linecap="round" stroke-linejoin="round" stroke-miterlimit="10" stroke-width="1"/>
    <path id="Stroke_61" data-name="Stroke 61" d="M23.4,0c5.873,1.933,10.63,7.653,12.938,15.193A35.449,35.449,0,0,1,37.849,25.58a36.308,36.308,0,0,1-.242,4.225c-1.438,12.514-9.176,22.072-18.622,22.072C8.5,51.877,0,40.1,0,25.58A33.717,33.717,0,0,1,3.2,10.963" transform="translate(34.32 34.167)" fill="none" stroke="#000" stroke-linecap="round" stroke-linejoin="round" stroke-miterlimit="10" stroke-width="1"/>
    <path id="Stroke_63" data-name="Stroke 63" d="M6.088,0a28.2,28.2,0,0,1,4.1,14.99C10.186,25.18,6.454,33.477,0,36.914" transform="translate(71.486 39.471)" fill="none" stroke="#000" stroke-linecap="round" stroke-linejoin="round" stroke-miterlimit="10" stroke-width="1"/>
    <path id="Stroke_65" data-name="Stroke 65" d="M.078,0,.043,6.939l4.84-1.012L4.46,7.521.035,8.449,0,15.37" transform="translate(28.181 43.266)" fill="none" stroke="#000" stroke-linecap="round" stroke-linejoin="round" stroke-miterlimit="10" stroke-width="1"/>
    <path id="Stroke_67" data-name="Stroke 67" d="M.28,4.453.3,0" transform="translate(27.855 60.719)" fill="none" stroke="#000" stroke-linecap="round" stroke-linejoin="round" stroke-miterlimit="10" stroke-width="1"/>
    <path id="Stroke_69" data-name="Stroke 69" d="M0,2.109c1.74.536,2.575.858,3.433,1.193a15.7,15.7,0,0,0,0-2.419L.019,0" transform="translate(28.258 58.65)" fill="none" stroke="#000" stroke-linecap="round" stroke-miterlimit="10" stroke-width="1"/>
    <path id="Stroke_71" data-name="Stroke 71" d="M0,0A37.774,37.774,0,0,1,5.1,1.218" transform="translate(21.319 58.972)" fill="none" stroke="#000" stroke-miterlimit="10" stroke-width="1"/>
    <path id="Stroke_73" data-name="Stroke 73" d="M4.782,1.516,0,0" transform="translate(21.637 56.836)" fill="none" stroke="#000" stroke-miterlimit="10" stroke-width="1"/>
    <path id="Stroke_75" data-name="Stroke 75" d="M.368,0,0,8.021c.368-.858.745-1.744.98-2.452A32.11,32.11,0,0,1,2.207,2.5c.557-1.253.716-2.16,2.81-1.939" transform="translate(32.795 25.891)" fill="none" stroke="#000" stroke-linecap="round" stroke-linejoin="round" stroke-miterlimit="10" stroke-width="1"/>
    <path id="Stroke_77" data-name="Stroke 77" d="M18.357.291H0" transform="translate(90.605 31.729)" fill="none" stroke="#000" stroke-linecap="round" stroke-linejoin="round" stroke-miterlimit="10" stroke-width="1"/>
    <path id="Stroke_79" data-name="Stroke 79" d="M6.743,12.486,0,6.243,6.743,0" transform="translate(90.231 25.777)" fill="none" stroke="#000" stroke-linecap="round" stroke-linejoin="round" stroke-miterlimit="10" stroke-width="1"/>
    <path id="Stroke_81" data-name="Stroke 81" d="M0,.291H18.356" transform="translate(0 31.729)" fill="none" stroke="#000" stroke-linecap="round" stroke-linejoin="round" stroke-miterlimit="10" stroke-width="1"/>
    <path id="Stroke_83" data-name="Stroke 83" d="M0,0,6.743,6.243,0,12.486" transform="translate(11.988 25.777)" fill="none" stroke="#000" stroke-linecap="round" stroke-linejoin="round" stroke-miterlimit="10" stroke-width="1"/>
    <path id="Stroke_85" data-name="Stroke 85" d="M30.157,0l1.476.4L29.956,20.213,29.8,21.37a.594.594,0,0,1-.709.5l-29.017-6L0,31.155" transform="translate(26.471 26.986)" fill="none" stroke="#000" stroke-linecap="round" stroke-linejoin="round" stroke-miterlimit="10" stroke-width="1"/>
    <path id="Stroke_87" data-name="Stroke 87" d="M0,9.888C3.359,3.859,8.519,0,14.305,0a12.938,12.938,0,0,1,2.576.259" transform="translate(38.801 33.186)" fill="none" stroke="#000" stroke-linecap="round" stroke-linejoin="round" stroke-miterlimit="10" stroke-width="1"/>
    <path id="Stroke_89" data-name="Stroke 89" d="M0,12.794C3.821,4.843,9.972,0,17.414,0A12.055,12.055,0,0,1,20.2.327" transform="translate(35.49 29.561)" fill="none" stroke="#000" stroke-linecap="round" stroke-linejoin="round" stroke-miterlimit="10" stroke-width="1"/>
  </g>
</svg>
