<?xml version="1.0" encoding="UTF-8"?>
<svg xmlns="http://www.w3.org/2000/svg" width="31.955" height="31.993" viewBox="0 0 31.955 31.993"><defs><style>.a{fill:rgba(245,141,141,0);}.b,.c{fill:none;stroke:#fff;stroke-miterlimit:10;}.b{stroke-linecap:round;stroke-linejoin:round;stroke-width:2px;}</style></defs><g transform="translate(0.962 1)"><rect class="a" width="30" height="30" transform="translate(-0.008)"/><path class="b" d="M7.489,0H22.466a7.214,7.214,0,0,1,5.3,2.2,7.233,7.233,0,0,1,2.193,5.3v15a7.491,7.491,0,0,1-7.489,7.5H7.489a7.214,7.214,0,0,1-5.3-2.2A7.233,7.233,0,0,1,0,22.495V7.5A7.233,7.233,0,0,1,2.193,2.2,7.214,7.214,0,0,1,7.489,0Z" transform="translate(0.038 0)"/><path class="b" d="M12.034,5.144A5.5,5.5,0,0,1,8.8,11.382a5.486,5.486,0,0,1-6.93-1.117A5.5,5.5,0,0,1,.756,3.326,5.489,5.489,0,0,1,6.987.09,5.476,5.476,0,0,1,12.034,5.144Z" transform="translate(8.973 8.908)"/><path class="c" d="M1.573.669A.659.659,0,0,0,.92.015.663.663,0,0,0,.113.434a.662.662,0,0,0,.145.9.66.66,0,0,0,.9.145A.664.664,0,0,0,1.573.669Z" transform="translate(23.253 5.158)"/></g></svg>