<?xml version="1.0" encoding="UTF-8"?>
<svg xmlns="http://www.w3.org/2000/svg" width="30" height="30" viewBox="0 0 30 30"><defs><style>.a{fill:rgba(255,60,60,0);}.b{fill:#fff;}</style></defs><g transform="translate(-6.535 -13.087)"><rect class="a" width="30" height="30" transform="translate(6.535 13.087)"/><path class="b" d="M85.322,106.378H78.289a.789.789,0,0,1,0-1.578h7.033a.789.789,0,0,1,0,1.578Z" transform="translate(-58.152 -73.367)"/><path class="b" d="M25.48,62.271H23.089l-.789-.789V48.089l.789-.789H41.96l.789.789v9.1a.789.789,0,1,1-1.578,0v-8.31H23.878V60.67h1.6a.783.783,0,0,1,.789.789A.8.8,0,0,1,25.48,62.271Z" transform="translate(-15.765 -29.213)"/><path class="b" d="M114.118,71.255h-3.087a.789.789,0,1,1,0-1.578h2.3V64.5l-3.11-3.923h-5.13a.789.789,0,1,1,0-1.578h5.524a.853.853,0,0,1,.627.3l3.528,4.433a.771.771,0,0,1,.162.487v6.221A.838.838,0,0,1,114.118,71.255Z" transform="translate(-78.731 -38.197)"/><path class="b" d="M35.482,106.763a3.482,3.482,0,1,1,3.482-3.482A3.477,3.477,0,0,1,35.482,106.763Zm0-5.362a1.88,1.88,0,1,0,1.88,1.88A1.872,1.872,0,0,0,35.482,101.4Z" transform="translate(-23.213 -69.527)"/><path class="b" d="M59.482,106.763a3.482,3.482,0,1,1,3.482-3.482A3.477,3.477,0,0,1,59.482,106.763Zm0-5.362a1.88,1.88,0,1,0,1.88,1.88A1.872,1.872,0,0,0,59.482,101.4Z" transform="translate(-41.642 -69.527)"/><path class="b" d="M111.082,106.763a3.482,3.482,0,1,1,3.482-3.482A3.477,3.477,0,0,1,111.082,106.763Zm0-5.362a1.88,1.88,0,1,0,1.88,1.88A1.872,1.872,0,0,0,111.082,101.4Z" transform="translate(-81.266 -69.527)"/></g></svg>