<svg xmlns="http://www.w3.org/2000/svg" width="70.34" height="72.976" viewBox="0 0 70.34 72.976"><g transform="translate(0.752 0.707)"><path d="M1.08,1.378c0,.762-.242,1.379-.54,1.379S0,2.14,0,1.378.242,0,.54,0,1.08.617,1.08,1.378Z" transform="translate(44.024 1.44)" fill="none" stroke="#000" stroke-linecap="round" stroke-linejoin="round" stroke-miterlimit="10" stroke-width="1.5"/><path d="M.911,1.163c0,.642-.2,1.163-.456,1.163S0,1.805,0,1.163.2,0,.456,0,.911.521.911,1.163Z" transform="translate(64.313 3.742)" fill="none" stroke="#000" stroke-linecap="round" stroke-linejoin="round" stroke-miterlimit="10" stroke-width="1.5"/><path d="M6.8,1.383S.609-.093.413,0A4,4,0,0,0,.02,1.875,60.669,60.669,0,0,0,6.8,4.14" transform="translate(37.834 0.056)" fill="none" stroke="#000" stroke-linecap="round" stroke-linejoin="round" stroke-miterlimit="10" stroke-width="1.5"/><path d="M0,0C.166.166,4.89,1.994,5.222,1.827" transform="translate(59.316 4.241)" fill="none" stroke="#000" stroke-linecap="round" stroke-linejoin="round" stroke-miterlimit="10" stroke-width="1.5"/><path d="M5.644.9C5.04.747,1.339.112.375,0a.226.226,0,0,0-.23.146C-.009.61-.062,1.241.093,1.4" transform="translate(59.166 2.844)" fill="none" stroke="#000" stroke-linecap="round" stroke-linejoin="round" stroke-miterlimit="10" stroke-width="1.5"/><path d="M0,0A11.026,11.026,0,0,1,1.429.87" transform="translate(34.249 5.366)" fill="none" stroke="#000" stroke-linecap="round" stroke-linejoin="round" stroke-miterlimit="10" stroke-width="1.5"/><path d="M3.3,1.477C2.482,1.273.126.787.028.492A.494.494,0,0,1,.126,0" transform="translate(32.472 4.886)" fill="none" stroke="#000" stroke-linecap="round" stroke-linejoin="round" stroke-miterlimit="10" stroke-width="1.5"/><path d="M0,5.378s.013-.189.049-.487A7.694,7.694,0,0,1,.982,1.538C1.964.16,2.995-.322,5.425.214,5.279,1.385,5.2,1.932,5.2,1.932" transform="translate(32.688 0)" fill="none" stroke="#000" stroke-linecap="round" stroke-linejoin="round" stroke-miterlimit="10" stroke-width="1.5"/><path d="M3.731.3A2.543,2.543,0,0,0,1.08.5C.307,1.2.1,3.055,0,4.237" transform="translate(34.157 1.634)" fill="none" stroke="#000" stroke-linecap="round" stroke-linejoin="round" stroke-miterlimit="10" stroke-width="1.5"/><path d="M0,5.092s.011-.8.041-1.049A6.357,6.357,0,0,1,.812,1.271C1.623.132,2.476-.266,4.485.177" transform="translate(54.753 2.588)" fill="none" stroke="#000" stroke-linecap="round" stroke-linejoin="round" stroke-miterlimit="10" stroke-width="1.5"/><path d="M3.085.247A2.1,2.1,0,0,0,.893.409C.255.991.081,2.525,0,3.5" transform="translate(55.97 3.938)" fill="none" stroke="#000" stroke-linecap="round" stroke-linejoin="round" stroke-miterlimit="10" stroke-width="1.5"/><path d="M0,27.668s.2-9.453.2-10.142.688-3.74,3.633-3.545C6.755,14.175,24,16.632,24.058,16.64,24.272,12.616,26-.027,26,0" transform="translate(6.677 5.181)" fill="none" stroke="#000" stroke-linecap="round" stroke-linejoin="round" stroke-miterlimit="10" stroke-width="1.5"/><path d="M6.776,6.942c0,3.834-1.517,6.942-3.388,6.942S0,10.776,0,6.942,1.517,0,3.388,0,6.776,3.108,6.776,6.942Z" transform="translate(3.731 51.851)" fill="none" stroke="#000" stroke-miterlimit="10" stroke-width="1.5"/><path d="M4.009,4.8c0,2.653-.9,4.8-2,4.8S0,7.458,0,4.8.9,0,2,0,4.009,2.151,4.009,4.8Z" transform="translate(5.051 54.024)" fill="none" stroke="#000" stroke-miterlimit="10" stroke-width="1.5"/><path d="M1.04,1.246c0,.688-.233,1.246-.519,1.246S0,1.934,0,1.246.233,0,.52,0s.519.558.519,1.246" transform="translate(6.536 57.582)" stroke="#707070" stroke-width="1.5"/><path d="M.262,6.078.294,0" transform="translate(6.219 45.874)" fill="none" stroke="#000" stroke-linecap="round" stroke-linejoin="round" stroke-miterlimit="10" stroke-width="1.5"/><path d="M2.4,26.729c-.5,3.328-.955,6.386-1.136,7.589a.633.633,0,0,1-1.253-.186c.5-3.484,2.656-18.335,2.743-18.77.1-.492.295-3.151,2.749-3.151,2.063,0,18.427,3.453,23.568,4.619v.009L30.245,3.646l.1-1.083S12.275.1,10.31,0,8.249,2.267,8.249,2.366s-.295,10.043-.295,10.043" transform="translate(0 20.403)" fill="none" stroke="#000" stroke-linecap="round" stroke-linejoin="round" stroke-miterlimit="10" stroke-width="1.5"/><path d="M3.83.12A1.768,1.768,0,0,0,1.375,1.794C1.24,2.928.624,7.137,0,11.345" transform="translate(2.651 34.067)" fill="none" stroke="#000" stroke-linecap="round" stroke-linejoin="round" stroke-miterlimit="10" stroke-width="1.5"/><path d="M.368,6.081h0a.593.593,0,0,1-.326-.769L2.034.369A.589.589,0,1,1,3.127.812L1.135,5.755A.59.59,0,0,1,.368,6.081Z" transform="translate(8.871 27.129)" fill="none" stroke="#000" stroke-linecap="round" stroke-linejoin="round" stroke-miterlimit="10" stroke-width="1.5"/><path d="M8.486,8.094c0,4.47-1.9,8.094-4.243,8.094S0,12.564,0,8.094,1.9,0,4.243,0,8.486,3.624,8.486,8.094Z" transform="translate(23.613 40.375)" fill="none" stroke="#000" stroke-miterlimit="10" stroke-width="1.5"/><path d="M8.485,7.195c0,4.467-1.9,8.094-4.243,8.094S0,11.662,0,7.195A14.829,14.829,0,0,1,.087,5.567c1.881.032,3.9.013,3.9.013a4.864,4.864,0,0,0,1.661-.262c.075-.624.278-2.63.539-5.318C7.553,1.342,8.485,4.06,8.485,7.195Z" transform="translate(47.649 35.494)" fill="none" stroke="#000" stroke-miterlimit="10" stroke-width="1.5"/><path d="M2.346,11.39A31.41,31.41,0,0,0,0,23.489c0,13.3,7.763,24.075,17.335,24.075,7.237,0,13.437-6.159,16.031-14.91a32.24,32.24,0,0,0,1.3-9.165,32.772,32.772,0,0,0-.745-6.994C32.128,8.269,27.246,1.906,21.152,0" transform="translate(10.576 23.955)" fill="none" stroke="#000" stroke-linecap="round" stroke-linejoin="round" stroke-miterlimit="10" stroke-width="1.5"/><path d="M18.738,0c6.694,2.212,11.574,10.572,11.574,20.547,0,11.664-6.709,21.12-15.107,21.12S0,32.211,0,20.547A27.152,27.152,0,0,1,2.564,8.806" transform="translate(12.676 27.02)" fill="none" stroke="#000" stroke-linecap="round" stroke-linejoin="round" stroke-miterlimit="10" stroke-width="1.5"/><path d="M0,42.716a14.434,14.434,0,0,0,10.433,4.847c7.237,0,13.437-6.159,16.031-14.91a32.244,32.244,0,0,0,1.3-9.165,32.771,32.771,0,0,0-.745-6.994C25.226,8.269,20.344,1.906,14.25,0" transform="translate(41.074 20.073)" fill="none" stroke="#000" stroke-linecap="round" stroke-linejoin="round" stroke-miterlimit="10" stroke-width="1.5"/><path d="M12.793,0c6.694,2.212,11.574,10.572,11.574,20.547,0,11.664-6.709,21.12-15.107,21.12A12.706,12.706,0,0,1,0,37.3" transform="translate(42.224 23.138)" fill="none" stroke="#000" stroke-linecap="round" stroke-linejoin="round" stroke-miterlimit="10" stroke-width="1.5"/><path d="M.062,0,.034,5.574l3.876-.813-.338,1.28L.028,6.786,0,12.345" transform="translate(7.892 34.505)" fill="none" stroke="#000" stroke-linecap="round" stroke-linejoin="round" stroke-miterlimit="10" stroke-width="1.5"/><path d="M.28,3.576.292,0" transform="translate(7.576 48.469)" fill="none" stroke="#000" stroke-linecap="round" stroke-linejoin="round" stroke-miterlimit="10" stroke-width="1.5"/><path d="M0,1.694c1.393.431,2.062.689,2.749.958a12.646,12.646,0,0,0,0-1.943L.015,0" transform="translate(7.954 46.821)" fill="none" stroke="#000" stroke-linecap="round" stroke-miterlimit="10" stroke-width="1.5"/><path d="M0,0A30.184,30.184,0,0,1,4.085.979" transform="translate(2.395 47.084)" fill="none" stroke="#000" stroke-miterlimit="10" stroke-width="1.5"/><path d="M3.83,1.218,0,0" transform="translate(2.651 45.378)" fill="none" stroke="#000" stroke-miterlimit="10" stroke-width="1.5"/><path d="M24.154,0l1.182.323L23.993,16.235l-.127.929a.476.476,0,0,1-.568.4L.057,12.75,0,25.023" transform="translate(6.522 21.48)" fill="none" stroke="#000" stroke-linecap="round" stroke-linejoin="round" stroke-miterlimit="10" stroke-width="1.5"/><path d="M9.356,34.938a13.576,13.576,0,0,0,3.184.243c1.881.032,3.9.013,3.9.013a4.868,4.868,0,0,0,1.662-.262c.074-.624.277-2.63.539-5.318C19.413,21.7,20.706,7.864,20.78,6.027c.1-2.462.2-4.529.2-4.529C8.721,3.316,0,0,0,0" transform="translate(35.218 6.146)" fill="none" stroke="#000" stroke-linecap="round" stroke-linejoin="round" stroke-miterlimit="10" stroke-width="1.5"/><path d="M0,7.942C2.69,3.1,6.823,0,11.457,0a10.334,10.334,0,0,1,2.064.208" transform="translate(16.356 26.352)" fill="none" stroke="#000" stroke-linecap="round" stroke-linejoin="round" stroke-miterlimit="10" stroke-width="1.5"/><path d="M0,10.276C3.06,3.889,7.986,0,13.947,0a9.629,9.629,0,0,1,2.234.262" transform="translate(13.719 23.454)" fill="none" stroke="#000" stroke-linecap="round" stroke-linejoin="round" stroke-miterlimit="10" stroke-width="1.5"/><path d="M0,6.015c.295-.689.6-1.4.786-1.969a25.663,25.663,0,0,1,.982-2.461C2.213.578,2.341-.152,4.018.027" transform="translate(11.515 21.087)" fill="none" stroke="#000" stroke-linecap="round" stroke-linejoin="round" stroke-miterlimit="10" stroke-width="1.5"/></g></svg>