<?xml version="1.0" encoding="UTF-8"?>
<svg xmlns="http://www.w3.org/2000/svg" width="30" height="30" viewBox="0 0 30 30"><defs><style>.a{fill:rgba(242,91,91,0);}.b{fill:#fff;}</style></defs><g transform="translate(0)"><rect class="a" width="30" height="30" transform="translate(0)"/><g transform="translate(13.069 12.045)"><path class="b" d="M219.6,202.4v5.475l5.046-2.714Z" transform="translate(-219.6 -202.4)"/></g><path class="b" d="M27.759,2.2a7.212,7.212,0,0,0-5.3-2.2H7.488A7.212,7.212,0,0,0,2.194,2.2,7.231,7.231,0,0,0,0,7.5V22.49a7.231,7.231,0,0,0,2.188,5.3,7.212,7.212,0,0,0,5.3,2.2H22.472a7.489,7.489,0,0,0,7.48-7.5V7.5A7.23,7.23,0,0,0,27.759,2.2ZM25.018,15.794c0,1.7-.154,3.417-.154,3.417a4.662,4.662,0,0,1-.771,2.081,2.794,2.794,0,0,1-2,.9c-2.826.206-7.066.231-7.066.231s-5.268-.077-6.886-.231a3.283,3.283,0,0,1-2.235-.9,4.349,4.349,0,0,1-.771-2.081s-.154-1.722-.154-3.417V14.2c0-1.7.154-3.417.154-3.417A4.662,4.662,0,0,1,5.9,8.7a2.852,2.852,0,0,1,2-.925C10.757,7.572,15,7.546,15,7.546s4.24.026,7.066.231a2.957,2.957,0,0,1,2.03.9,4.412,4.412,0,0,1,.771,2.107s.154,1.722.154,3.417Z" transform="translate(0 0)"/></g></svg>