<svg xmlns="http://www.w3.org/2000/svg" width="59.986" height="58.77" viewBox="0 0 59.986 58.77"><g transform="translate(-190.057 -413.47)"><path d="M-7688.171,415.491s4.115-4.806,4.061-5.771,0-.938,0-.938,10.129-.658,10.895-.958,2.859-3.3,2.859-3.665,14.447-.935,14.447-.935l2.252.606.449,2.943-1.883-.359-.531-2.254-11.178,1.126-1.4,2.538s9.281-.284,11.057-.581,3.73.262,6.121,1.01,7.779,22.882,7.779,22.882l-.406,1.289s9.859-.2,13.08,9.31a14.108,14.108,0,0,1-13.7,18.754c-9.9-.088-13.945-8.738-13.187-15.617s1.088-3.878,1.088-3.878l-6.762-7.08,3-.774-.369-.715-3.5.715-1.045-1.35-17.754-.653v-6.77s-.5.962-1.316-.591a19.41,19.41,0,0,1-1.207-4.989,8.307,8.307,0,0,1-2.184-1.281,1.844,1.844,0,0,1-.67-1.565" transform="translate(7879 11)" fill="none" stroke="#000" stroke-width="1.5"/><path d="M-7629,635.94l2.7-3.445a93.428,93.428,0,0,0,9.186,1.777c4.359.565,7.639.259,8.283,1.668s7.738,13.322,7.738,13.322l5.988-1.5s3.637-.023,5.844,0,2.123,1.5,2.123,1.5" transform="translate(7822.902 -206.321)" fill="none" stroke="#000" stroke-width="1.5"/><path d="M-7186.14,954.2h-6.016v1.365l4.43,12.438-3.187,2.826-14.451-14.6,6.068-2.026" transform="translate(7421.348 -511.258)" fill="none" stroke="#000" stroke-width="1.5"/><path d="M-6981.479,593.37l3.885,12.485,2.123.052-4.584-12.243Z" transform="translate(7209.132 -169.236)" fill="none" stroke="#000" stroke-width="1.5"/></g></svg>