<?xml version="1.0" encoding="UTF-8"?>
<svg xmlns="http://www.w3.org/2000/svg" viewBox="0 0 1296.8 289.7"><path d="M110.4 5C94.6 5 81.8 17.9 81.8 33.7s12.9 28.7 28.7 28.7 28.7-12.9 28.7-28.7C139.1 17.9 126.3 5 110.4 5zm142.2 0c-15.8 0-28.7 12.9-28.7 28.7s12.9 28.7 28.7 28.7 28.7-12.9 28.7-28.7C281.2 17.9 268.4 5 252.6 5zm143.6 0c-15.8 0-28.7 12.9-28.7 28.7s12.9 28.7 28.7 28.7c15.8 0 28.7-12.9 28.7-28.7C424.9 17.9 412 5 396.2 5zm71.5 128.8c15.8 0 28.7-12.9 28.7-28.7s-12.9-28.7-28.7-28.7c-15.8 0-28.7 12.9-28.7 28.7s12.9 28.7 28.7 28.7zM325.5 76.4c-15.8 0-28.7 12.9-28.7 28.7s12.9 28.7 28.7 28.7 28.7-12.9 28.7-28.7-12.8-28.7-28.7-28.7zm-142.8 0c-15.8 0-28.7 12.9-28.7 28.7s12.9 28.7 28.7 28.7 28.7-12.9 28.7-28.7c-.1-15.8-12.9-28.7-28.7-28.7zM39 76.4c-15.8 0-28.7 12.9-28.7 28.7s12.9 28.7 28.7 28.7 28.7-12.9 28.7-28.7S54.8 76.4 39 76.4zm71.4 72.3c-15.8 0-28.7 12.9-28.7 28.7s12.9 28.7 28.7 28.7 28.7-12.9 28.7-28.7c0-15.9-12.8-28.7-28.7-28.7zm142.2 0c-15.8 0-28.7 12.9-28.7 28.7s12.9 28.7 28.7 28.7 28.7-12.9 28.7-28.7c-.1-15.9-12.9-28.7-28.7-28.7zm143.6 0c-15.8 0-28.7 12.9-28.7 28.7s12.9 28.7 28.7 28.7c15.8 0 28.7-12.9 28.7-28.7 0-15.9-12.9-28.7-28.7-28.7zM39 218.6c-15.8 0-28.7 12.9-28.7 28.7S23.2 276 39 276s28.7-12.9 28.7-28.7c0-15.9-12.9-28.7-28.7-28.7zm143.7 0c-15.8 0-28.7 12.9-28.7 28.7s12.9 28.7 28.7 28.7 28.7-12.9 28.7-28.7c-.1-15.9-12.9-28.7-28.7-28.7zm142.8 0c-15.8 0-28.7 12.9-28.7 28.7s12.9 28.7 28.7 28.7 28.7-12.9 28.7-28.7c0-15.9-12.8-28.7-28.7-28.7zM542.4 5c-15.8 0-28.7 12.9-28.7 28.7s12.9 28.7 28.7 28.7 28.7-12.9 28.7-28.7c0-15.8-12.8-28.7-28.7-28.7zm142.2 0c-15.8 0-28.7 12.9-28.7 28.7s12.9 28.7 28.7 28.7 28.7-12.9 28.7-28.7C713.2 17.9 700.4 5 684.6 5zm143.6 0c-15.8 0-28.7 12.9-28.7 28.7s12.9 28.7 28.7 28.7 28.7-12.9 28.7-28.7S844 5 828.2 5zm71.5 128.8c15.8 0 28.7-12.9 28.7-28.7s-12.9-28.7-28.7-28.7S871 89.3 871 105.1s12.9 28.7 28.7 28.7zM757.5 76.4c-15.8 0-28.7 12.9-28.7 28.7s12.9 28.7 28.7 28.7 28.7-12.9 28.7-28.7-12.8-28.7-28.7-28.7zm-142.8 0c-15.8 0-28.7 12.9-28.7 28.7s12.9 28.7 28.7 28.7 28.7-12.9 28.7-28.7c-.1-15.8-12.9-28.7-28.7-28.7zm-72.3 72.3c-15.8 0-28.7 12.9-28.7 28.7s12.9 28.7 28.7 28.7 28.7-12.9 28.7-28.7c0-15.9-12.8-28.7-28.7-28.7zm142.2 0c-15.8 0-28.7 12.9-28.7 28.7s12.9 28.7 28.7 28.7 28.7-12.9 28.7-28.7c-.1-15.9-12.9-28.7-28.7-28.7zm143.6 0c-15.8 0-28.7 12.9-28.7 28.7s12.9 28.7 28.7 28.7 28.7-12.9 28.7-28.7c0-15.9-12.9-28.7-28.7-28.7zM471 218.6c-.6 0-1.1 0-1.7.1-.6 0-1.1-.1-1.7-.1-15.8 0-28.7 12.9-28.7 28.7s12.9 28.7 28.7 28.7c.6 0 1.1 0 1.7-.1.6 0 1.1.1 1.7.1 15.8 0 28.7-12.9 28.7-28.7 0-15.9-12.9-28.7-28.7-28.7zm143.7 0c-15.8 0-28.7 12.9-28.7 28.7s12.9 28.7 28.7 28.7 28.7-12.9 28.7-28.7c-.1-15.9-12.9-28.7-28.7-28.7zm142.8 0c-15.8 0-28.7 12.9-28.7 28.7s12.9 28.7 28.7 28.7 28.7-12.9 28.7-28.7c0-15.9-12.8-28.7-28.7-28.7zM974.4 5c-15.8 0-28.7 12.9-28.7 28.7s12.9 28.7 28.7 28.7 28.7-12.9 28.7-28.7c0-15.8-12.8-28.7-28.7-28.7zm142.2 0c-15.8 0-28.7 12.9-28.7 28.7s12.9 28.7 28.7 28.7c15.8 0 28.7-12.9 28.7-28.7-.1-15.8-12.9-28.7-28.7-28.7zm143.6 0c-15.8 0-28.7 12.9-28.7 28.7s12.9 28.7 28.7 28.7c15.8 0 28.7-12.9 28.7-28.7 0-15.8-12.9-28.7-28.7-28.7zm-70.7 71.4c-15.8 0-28.7 12.9-28.7 28.7s12.9 28.7 28.7 28.7 28.7-12.9 28.7-28.7-12.8-28.7-28.7-28.7zm-142.8 0c-15.8 0-28.7 12.9-28.7 28.7s12.9 28.7 28.7 28.7 28.7-12.9 28.7-28.7c-.1-15.8-12.9-28.7-28.7-28.7zm-72.3 72.3c-15.8 0-28.7 12.9-28.7 28.7s12.9 28.7 28.7 28.7 28.7-12.9 28.7-28.7c0-15.9-12.8-28.7-28.7-28.7zm142.2 0c-15.8 0-28.7 12.9-28.7 28.7s12.9 28.7 28.7 28.7c15.8 0 28.7-12.9 28.7-28.7-.1-15.9-12.9-28.7-28.7-28.7zm143.6 0c-15.8 0-28.7 12.9-28.7 28.7s12.9 28.7 28.7 28.7c15.8 0 28.7-12.9 28.7-28.7 0-15.9-12.9-28.7-28.7-28.7zM903 218.6c-.6 0-1.1 0-1.7.1-.6 0-1.1-.1-1.7-.1-15.8 0-28.7 12.9-28.7 28.7s12.9 28.7 28.7 28.7c.6 0 1.1 0 1.7-.1.6 0 1.1.1 1.7.1 15.8 0 28.7-12.9 28.7-28.7 0-15.9-12.9-28.7-28.7-28.7zm143.7 0c-15.8 0-28.7 12.9-28.7 28.7s12.9 28.7 28.7 28.7 28.7-12.9 28.7-28.7c-.1-15.9-12.9-28.7-28.7-28.7zm142.8 0c-15.8 0-28.7 12.9-28.7 28.7s12.9 28.7 28.7 28.7 28.7-12.9 28.7-28.7c0-15.9-12.8-28.7-28.7-28.7z"/></svg>