<svg xmlns="http://www.w3.org/2000/svg" width="60.348" height="39.799" viewBox="0 0 60.348 39.799"><g transform="translate(0.75 0.75)"><g transform="translate(18.003)"><path d="M4447.419,180.694h5.175c2.231,0,2.41,1.829,2.318,3.715,0,.23-.057,1.691-.057,1.691v8.246H4472v4.769h-9.663l-3.176-2.591" transform="translate(-4441.259 -180.694)" fill="none" stroke="#000" stroke-linecap="round" stroke-linejoin="round" stroke-width="1.5"/><path d="M4438.019,199.5h8.559c3.2,0,4.657,1.633,4.657,3.944v8.315s-.019,2.63,3.271,2.63h2.606" transform="translate(-4416.267 -180.349)" fill="none" stroke="#000" stroke-linecap="round" stroke-linejoin="round" stroke-width="1.5"/><g transform="translate(0 13.225)" fill="none" stroke="#000" stroke-linecap="round" stroke-linejoin="round" stroke-width="1.5"><circle cx="12.912" cy="12.912" r="12.912" stroke="none"/><circle cx="12.912" cy="12.912" r="12.162" fill="none"/></g><g transform="translate(27.975 30.441)" fill="none" stroke="#000" stroke-linecap="round" stroke-linejoin="round" stroke-width="1.5"><circle cx="4.304" cy="4.304" r="4.304" stroke="none"/><circle cx="4.304" cy="4.304" r="3.554" fill="none"/></g></g><line x1="18.098" transform="translate(0 0.658)" fill="none" stroke="#000" stroke-linecap="round" stroke-width="1.5"/><line x1="11.137" transform="translate(6.961 10.403)" fill="none" stroke="#000" stroke-linecap="round" stroke-width="1.5"/><line x1="9.745" transform="translate(8.353 20.149)" fill="none" stroke="#000" stroke-linecap="round" stroke-width="1.5"/></g></svg>