<?xml version="1.0" encoding="UTF-8"?>
<svg viewBox="0 0 163 37" version="1.1" xmlns="http://www.w3.org/2000/svg" xmlns:xlink="http://www.w3.org/1999/xlink">
    <!-- Generator: Sketch 51.2 (57519) - http://www.bohemiancoding.com/sketch -->
    <title>SMOOV_black</title>
    <desc>Created with Sketch.</desc>
    <defs></defs>
    <g id="SMOOV_black" stroke="none" stroke-width="1" fill="none" fill-rule="evenodd">
        <g id="SMOOV_white" fill="#FFFFFF">
            <path d="M116.176213,0.0089140625 C111.891605,-0.124032813 107.674744,1.25535469 104.302681,3.89264375 C102.9834,4.9246375 102.750361,6.83097344 103.782355,8.15050937 C104.814603,9.47004531 106.720684,9.70308437 108.040475,8.67083594 C110.296497,6.90636094 113.119198,5.98337344 115.988253,6.07225937 C122.762686,6.28237656 128.103483,11.9648877 127.89362,18.7395752 C127.683503,25.5145173 122.000916,30.8553142 115.226228,30.6454517 C112.581808,30.5631877 110.088927,29.6587923 108.017044,28.0293017 C106.700055,26.993997 104.793209,27.2216877 103.757905,28.5386767 C102.7226,29.8554111 102.950291,31.7622564 104.267025,32.7978158 C107.364789,35.2339017 111.089339,36.5862923 115.038014,36.7085423 C125.156239,37.0223173 133.643191,29.0457595 133.956711,18.9277892 C134.270741,8.80964062 126.294183,0.322434375 116.176213,0.0089140625" id="Fill-1"></path>
            <path d="M83.4312953,30.7385909 C76.6637391,30.7385909 71.1976359,25.2724878 71.1976359,18.5049316 C71.1976359,11.7893316 76.6637391,6.27117031 83.4312953,6.27117031 C90.1468953,6.27117031 95.6649547,11.7893316 95.6649547,18.5049316 C95.6649547,25.2724878 90.1468953,30.7385909 83.4312953,30.7385909 M112.067848,21.7802128 L112.067848,21.7715534 C112.929456,22.6481878 114.127506,23.1934738 115.454173,23.1934738 C118.076945,23.1934738 120.203586,21.0670878 120.203586,18.4443159 C120.203586,15.8212894 118.076945,13.6949034 115.454173,13.6949034 C114.113753,13.6949034 112.905516,14.2524144 112.04187,15.1456034 C110.782186,16.2101972 109.103286,16.8708566 107.329388,16.8708566 C104.297333,16.8708566 101.695445,14.9933003 100.625248,12.3399659 L100.625248,12.3440409 C98.0816844,5.30284844 91.3192219,0.232275 83.4312953,0.232275 C73.3321719,0.232275 65.1589953,8.4576625 65.1589953,18.5049316 C65.1589953,28.604055 73.3321719,36.7774863 83.4312953,36.7774863 C91.27185,36.7774863 98.0022219,31.7998738 100.580678,24.8140503 L100.580423,24.8486878 C101.613436,22.0774331 104.286636,20.0985113 107.41318,20.0985113 C109.256098,20.0985113 110.783205,20.6481269 112.067848,21.7802128" id="Fill-2"></path>
            <path d="M11.9221766,36.8453859 C7.34085781,36.8453859 4.58157344,34.9194391 3.019575,33.3574406 C1.09311875,31.3268172 0,28.6194891 0,25.8602047 C0,24.1942938 1.35366406,22.8408844 3.019575,22.8408844 C4.68574063,22.8408844 6.03915,24.1942938 6.03915,25.8602047 C6.03915,27.6824938 7.28890156,30.8062359 11.9221766,30.8062359 C16.5557063,30.8062359 17.8054578,27.6824938 17.8054578,25.8602047 C17.8054578,23.1009203 16.2954156,22.2683469 11.1935156,20.8102609 C8.90285625,20.1335563 6.55973125,19.4565969 4.63352969,18.1029328 C2.03036875,16.3328547 0.728915625,13.8338609 0.728915625,10.6062063 C0.728915625,8.00304531 1.77033281,5.45184063 3.54041094,3.57785 C4.9979875,2.0680625 7.65310469,0.297729688 11.9221766,0.297729688 C16.2434594,0.297729688 18.8463656,2.0680625 20.3041969,3.57785 C22.1262313,5.45184063 23.1676484,8.00304531 23.1676484,10.6062063 C23.1676484,12.2723719 21.8142391,13.6257813 20.0961172,13.6257813 C18.4299516,13.6257813 17.0762875,12.2723719 17.0762875,10.6062063 C17.0762875,9.04420781 15.9831688,6.33687969 11.9221766,6.33687969 C7.86143906,6.33687969 6.76806563,9.04420781 6.76806563,10.6062063 C6.76806563,12.636575 7.5489375,13.4177016 12.8594266,14.9794453 C15.2542531,15.65615 17.7532469,16.3850656 19.7836156,17.8428969 C22.4909438,19.7171422 23.8446078,22.4244703 23.8446078,25.8602047 C23.8446078,28.6194891 22.7512344,31.3268172 20.8250328,33.3574406 C19.3149906,34.9194391 16.50375,36.8453859 11.9221766,36.8453859" id="Fill-3"></path>
            <path d="M58.2725,36.3785183 C56.6035328,36.3785183 55.2475766,35.0223073 55.2475766,33.3011292 L55.2475766,13.4630105 L47.0588641,25.6678902 C46.4850531,26.5025011 45.5460203,27.0241011 44.5552859,27.0241011 C43.5120859,27.0241011 42.5730531,26.5025011 41.9992422,25.6678902 L33.8107844,13.4630105 L33.8107844,33.3011292 C33.8107844,35.0223073 32.4545734,36.3785183 30.7853516,36.3785183 C29.1163844,36.3785183 27.7601734,35.0223073 27.7601734,33.3011292 L27.7601734,3.50093437 C27.7601734,2.19693437 28.64725,0.99735625 29.8990391,0.632134375 C31.2027844,0.214701563 32.5589953,0.73655625 33.2889297,1.83196719 L44.5552859,18.5223777 L55.7691766,1.83196719 C56.4993656,0.73655625 57.8553219,0.214701563 59.1593219,0.632134375 C60.4111109,0.99735625 61.2976781,2.19693437 61.2976781,3.50093437 L61.2976781,33.3011292 C61.2976781,35.0223073 59.9417219,36.3785183 58.2725,36.3785183" id="Fill-4"></path>
            <path d="M148.401313,36.1449953 C147.148759,36.1449953 146.000883,35.3633594 145.583705,34.1648 L134.25928,4.64269844 C133.685469,3.07891719 134.468123,1.30705625 136.033433,0.733754687 C137.651208,0.160453125 139.373659,0.994554687 139.94747,2.55808125 L148.401313,24.3667172 L156.907366,2.55808125 C157.481177,0.994554687 159.203628,0.160453125 160.769192,0.733754687 C162.334502,1.30705625 163.169367,3.07891719 162.595556,4.64269844 L151.271641,34.1648 C150.801742,35.3633594 149.706077,36.1449953 148.401313,36.1449953" id="Fill-5"></path>
        </g>
    </g>
</svg>
